<svg width="361" height="132" viewBox="0 0 361 132" xmlns="http://www.w3.org/2000/svg"><title>logo_horizontal</title><g fill="none" fill-rule="evenodd"><path d="M78.852 71.077c0-2.67-.564-5.117-1.691-7.333a16.893 16.893 0 0 0-4.51-5.756c-1.915-1.578-4.112-2.666-6.591-3.27V.96h-8.23v53.757c-2.48.639-4.68 1.732-6.596 3.27a16.947 16.947 0 0 0-4.51 5.756c-1.087 2.216-1.65 4.662-1.69 7.333v16.98h5.411v10.776c.04.973.375 1.784 1.013 2.423.639.64 1.431.961 2.37.961.977 0 1.783-.322 2.421-.96.639-.64.978-1.45 1.017-2.424V88.057h9.41v10.776c0 .973.322 1.784.96 2.423.639.64 1.45.961 2.422.961.943 0 1.73-.322 2.37-.96.638-.64.977-1.45 1.012-2.424V88.057h5.412v-16.98" fill="#002D48"/><path d="M74.906 9.757v12.468c7.103 1.956 13.418 5.249 18.94 9.872 5.486 4.627 9.806 10.21 12.963 16.755 3.157 6.505 4.773 13.614 4.848 21.321-.04 6.92-1.334 13.371-3.888 19.352-2.594 5.976-6.147 11.242-10.656 15.795-4.545 4.548-9.824 8.104-15.835 10.66-5.975 2.556-12.4 3.874-19.278 3.95-6.913-.04-13.36-1.354-19.331-3.95-5.975-2.556-11.237-6.112-15.782-10.66-4.549-4.553-8.098-9.82-10.656-15.795-2.554-5.98-3.87-12.432-3.945-19.352.074-7.707 1.69-14.834 4.848-21.378 3.157-6.505 7.499-12.071 13.02-16.698 5.487-4.623 11.78-7.916 18.882-9.872V9.757c-6.988 1.543-13.452 4.138-19.388 7.787a63.217 63.217 0 0 0-15.443 13.539C9.806 36.46 6.39 42.458 3.945 49.077 1.502 55.697.265 62.73.225 70.173c.04 8.577 1.655 16.584 4.848 24.032 3.192 7.448 7.609 14.01 13.245 19.686 5.676 5.641 12.233 10.062 19.67 13.257C45.43 130.308 53.431 131.925 62 132c8.569-.04 16.57-1.653 24.012-4.852 7.437-3.195 13.976-7.616 19.613-13.257 5.636-5.676 10.053-12.238 13.245-19.686 3.197-7.448 4.809-15.455 4.848-24.032-.04-7.443-1.277-14.477-3.72-21.096-2.405-6.62-5.804-12.617-10.203-17.994-4.395-5.341-9.56-9.854-15.5-13.539-5.897-3.649-12.36-6.244-19.389-7.787" fill="#F15A29"/><path d="m201.344 82.161-.79 11.297h-40.448v-2.133c.263.105.711.158 1.343.158 1.317 0 2.502-.421 3.555-1.264 1.053-.843 1.58-1.922 1.58-3.239V45.9c0-1.79-.816-2.976-2.449-3.555-.632-.21-2.344-.448-5.135-.711V39.58h40.764l.474.632-1.106 9.243h-2.291v-4.108c0-.895-.237-1.554-.711-1.975-.632-.58-1.738-.869-3.318-.869H174.01v21.646l.474.158h15.721c1.159 0 1.922-1.132 2.291-3.397.105-.737.158-1.87.158-3.397h2.054v15.879h-2.054c0-1.37-.053-2.37-.158-3.002-.316-2.001-1.08-3.002-2.291-3.002h-15.721l-.474.632v22.357h19.75c2.212 0 3.818-1.37 4.819-4.108.316-.895.606-2.265.869-4.108h1.896zm58.855-42.581v2.054a6.04 6.04 0 0 0-2.647.276c-.869.29-1.461.804-1.777 1.541l-20.54 50.481h-3.713L211.93 43.767c-.632-.948-1.382-1.54-2.251-1.778-.87-.237-1.962-.355-3.279-.355V39.58h20.461v2.054c-.21-.053-.527-.079-.948-.079h-.948c-1.37 0-2.554.145-3.555.434-1 .29-1.396.725-1.185 1.304l15.168 40.29 14.615-39.816c.316-1-.685-1.659-3.002-1.975-.737-.053-1.949-.105-3.634-.158V39.58h16.827zm55.616 48.506c0 1.738-2.396 3.292-7.189 4.661-4.319 1.211-8.558 1.817-12.719 1.817-8.058 0-15.036-2.396-20.935-7.189-6.373-5.214-9.559-11.85-9.559-19.908 0-4.266.79-8.295 2.37-12.087 2.001-4.845 5.082-8.716 9.243-11.613 5.056-3.529 11.376-5.293 18.96-5.293 3.37 0 6.583.263 9.638.79 3.055.527 6.452 1.37 10.191 2.528l-2.212 9.717h-2.133l-.316-5.135c-4.16-3.16-9.032-4.74-14.615-4.74-7.057 0-12.719 2.37-16.985 7.11-3.95 4.371-5.925 9.822-5.925 16.353 0 7.057 2.238 12.982 6.715 17.775 4.74 5.109 10.955 7.663 18.644 7.663 3.74 0 6.9-.421 9.48-1.264 2.212-.948 4.45-1.922 6.715-2.923.263 0 .448.105.553.316.053.105.079.58.079 1.422zm33.101-24.727c3.16.58 5.727 2.001 7.702 4.266 1.976 2.265 2.963 5.003 2.963 8.216 0 5.74-2.475 10.323-7.426 13.746-4.477 3.107-9.743 4.661-15.8 4.661-2.212 0-4.332-.21-6.36-.632-2.027-.421-4.358-1.08-6.991-1.975.21-1.37.369-3.002.474-4.898.105-1.896.158-3.713.158-5.451h2.133c0 3.213 1.211 5.635 3.634 7.268 2.054 1.37 4.793 2.054 8.216 2.054 4.582 0 8.23-1.066 10.941-3.2 2.713-2.133 4.069-4.963 4.069-8.492 0-2.317-.658-4.345-1.975-6.083-1.475-1.949-3.502-3.107-6.083-3.476l-13.746-1.975c-2.791-.421-4.911-1.804-6.36-4.148-1.448-2.343-2.172-5.121-2.172-8.334 0-4.95 2.08-9.059 6.241-12.324 3.897-3.055 8.4-4.582 13.509-4.582 2.317 0 4.648.303 6.991.908a38.705 38.705 0 0 1 6.992 2.568c-.843 3.16-1.422 6.136-1.738 8.927h-1.501c0-1.633-.263-3.37-.79-5.214a11.166 11.166 0 0 0-4.305-3.239c-1.712-.737-3.595-1.106-5.649-1.106-3.476 0-6.557 1.211-9.243 3.634s-4.029 5.161-4.029 8.216c0 1.949.33 3.673.988 5.174.658 1.502 1.803 2.41 3.436 2.726l15.721 2.765z" stroke="#002D48" fill="#002D48" fill-rule="nonzero"/></g></svg>