<?xml version="1.0" encoding="UTF-8"?>
<!-- Generator: Adobe Illustrator 25.4.1, SVG Export Plug-In . SVG Version: 6.00 Build 0)  -->
<svg version="1.1" id="Layer_1" xmlns="http://www.w3.org/2000/svg" xmlns:xlink="http://www.w3.org/1999/xlink" x="0px" y="0px" viewBox="0 0 345 70" style="enable-background:new 0 0 345 70;" xml:space="preserve">
<style type="text/css">
	.st0{fill:#E10A17;}
	.st1{fill:#0196A8;}
	.st2{fill-rule:evenodd;clip-rule:evenodd;fill:#E10A17;}
	.st3{fill:#FFD201;}
</style>
<g>
	<g>
		<path class="st0" d="M142.9,20.8c-0.6-0.5-1.3-0.8-2.1-0.8c-0.6,0-1.4,0.3-1.4,1c0,0.7,0.9,1,1.4,1.2l0.8,0.2c1.7,0.5,3,1.4,3,3.3    c0,1.2-0.3,2.5-1.3,3.3c-1,0.8-2.2,1.2-3.5,1.2c-1.5,0-3.1-0.5-4.3-1.4l1.4-2.6c0.8,0.7,1.7,1.3,2.8,1.3c0.7,0,1.5-0.4,1.5-1.2    c0-0.9-1.3-1.2-1.9-1.4c-2-0.6-3.3-1.1-3.3-3.5c0-2.5,1.8-4.1,4.2-4.1c1.2,0,2.7,0.4,3.8,1L142.9,20.8z"/>
		<path class="st0" d="M149,16.4v6.2h0c0.7-0.9,1.5-1.3,2.7-1.3c2.1,0,3.1,1.4,3.1,3.5v5.1h-3v-4.3c0-1-0.1-2-1.3-2    c-1.2,0-1.5,1-1.5,2v4.3h-3V16.4H149z"/>
		<path class="st0" d="M165.4,26.2h-6.2c0,1.2,0.6,1.9,1.9,1.9c0.6,0,1.1-0.2,1.4-0.8h2.8c-0.2,1-0.8,1.7-1.6,2.2    c-0.8,0.5-1.7,0.7-2.7,0.7c-2.8,0-4.8-1.6-4.8-4.4c0-2.8,1.9-4.4,4.6-4.4c2.9,0,4.6,1.8,4.6,4.6V26.2z M162.6,24.5    c-0.1-0.8-0.9-1.3-1.7-1.3c-0.9,0-1.6,0.5-1.8,1.3H162.6z"/>
		<rect x="166.7" y="16.4" class="st0" width="3" height="13.5"/>
		<rect x="171.6" y="16.4" class="st0" width="3" height="13.5"/>
		<path class="st1" d="M150.4,51.6h-5.7l-4.4-6.8h0v6.8h-4.6V33.8h6.9c3.5,0,6.2,1.7,6.2,5.5c0,2.5-1.4,4.6-3.9,5L150.4,51.6z     M140.2,41.8h0.4c1.5,0,3.2-0.3,3.2-2.2c0-1.9-1.7-2.2-3.2-2.2h-0.4V41.8z"/>
		<path class="st1" d="M163.9,46.3h-9c0,1.7,0.9,2.7,2.7,2.7c0.9,0,1.6-0.3,2-1.1h4.1c-0.3,1.4-1.2,2.5-2.3,3.1    c-1.1,0.7-2.5,1-3.9,1c-4,0-7-2.3-7-6.4c0-4,2.8-6.5,6.7-6.5c4.2,0,6.6,2.6,6.6,6.7V46.3z M159.9,43.8c-0.2-1.2-1.3-1.9-2.4-1.9    c-1.2,0-2.3,0.7-2.5,1.9H159.9z"/>
		<path class="st1" d="M174.6,43.4c-0.6-0.5-1.4-0.8-2.2-0.8c-1.6,0-2.9,1.3-2.9,2.9c0,1.7,1.2,3,3,3c0.8,0,1.6-0.3,2.1-0.8v3.6    c-0.9,0.5-2,0.7-3,0.7c-3.6,0-6.6-2.7-6.6-6.3c0-3.9,3-6.6,6.8-6.6c1,0,2,0.2,2.8,0.7V43.4z"/>
		<path class="st1" d="M181.6,32v9h0c1-1.3,2.2-1.9,3.9-1.9c3.1,0,4.5,2,4.5,5.1v7.4h-4.3v-6.2c0-1.4-0.2-2.9-1.9-2.9    c-1.7,0-2.2,1.5-2.2,2.9v6.2h-4.3V32H181.6z"/>
		<path class="st1" d="M206.1,51.6h-4.3v-1.3h0c-0.8,1.2-2.2,1.7-3.7,1.7c-3.6,0-6.1-3-6.1-6.5c0-3.5,2.5-6.4,6.1-6.4    c1.4,0,2.9,0.5,3.7,1.6v-1.2h4.3V51.6z M196.4,45.5c0,1.5,1,2.7,2.8,2.7s2.8-1.2,2.8-2.7c0-1.5-1-2.7-2.8-2.7    S196.4,44.1,196.4,45.5"/>
		<path class="st1" d="M213.2,41.5L213.2,41.5c0.9-1.5,2.3-2.1,4-2.1h0.8v4.1c-0.6-0.3-1.2-0.4-1.8-0.4c-2.4,0-3,1.6-3,3.7v4.9h-4.3    V39.5h4.3V41.5z"/>
		<path class="st1" d="M233.3,50.4c0,5.1-2.5,7.2-7,7.2c-2.8,0-6.5-1.4-6.9-4.6h4.8c0.1,0.4,0.4,0.7,0.8,0.9    c0.4,0.2,0.8,0.3,1.2,0.3c2.3,0,2.8-1.5,2.8-3.5v-0.6c-1.1,1.1-2.2,1.6-3.8,1.6c-3.5,0-6-2.7-6-6.2c0-3.5,2.5-6.5,6.2-6.5    c1.4,0,2.7,0.5,3.6,1.7h0v-1.3h4.3V50.4z M223.6,45.5c0,1.5,1,2.7,2.8,2.7s2.8-1.2,2.8-2.7c0-1.5-1-2.7-2.8-2.7    S223.6,44,223.6,45.5"/>
		<path class="st1" d="M248.4,46.3h-9c0,1.7,0.9,2.7,2.7,2.7c0.9,0,1.6-0.3,2-1.1h4.1c-0.3,1.4-1.2,2.5-2.3,3.1    c-1.1,0.7-2.5,1-3.9,1c-4,0-7-2.3-7-6.4c0-4,2.8-6.5,6.7-6.5c4.2,0,6.6,2.6,6.6,6.7V46.3z M244.4,43.8c-0.2-1.2-1.3-1.9-2.4-1.9    c-1.2,0-2.3,0.7-2.5,1.9H244.4z"/>
		<path class="st1" d="M267.7,22.1c-0.4-0.5-1.2-0.4-1.6,0l-5.2,5.2c-0.4,0.4-0.4,1.2,0,1.6l2.6,2.6c-2.8,2.8-7.3,3-10.2,0.5    l6.6-6.6c0.2-0.2,0.2-0.5,0-0.7l-6.5-6.5c-0.2-0.2-0.5-0.2-0.7,0l-0.4,0.3c-0.4,0.3-0.7,0.6-1,0.9c-1.8,1.8-2.9,4.3-2.9,6.9    c0,2,0.6,4,1.8,5.6l-2.2,2.2c-0.4,0.4-0.5,1.2,0,1.6c0.4,0.4,1.1,0.4,1.6,0l2.2-2.2c1.8,1.6,4.1,2.5,6.5,2.5c2.6,0,5.1-1,6.9-2.9    c0.3-0.3,0.6-0.7,0.9-1l0.3-0.4c0.2-0.2,0.1-0.5,0-0.7l-2.9-2.9l4.5-4.5C268.2,23.3,268.2,22.6,267.7,22.1 M252.9,21l4.1,4.1    l-5.2,5.2C249.9,27.4,250.3,23.5,252.9,21"/>
		<path class="st1" d="M259.7,21l2.7-2.7c0.4-0.4,0.4-1.2,0-1.6c-0.4-0.4-1.2-0.4-1.6,0l-2.7,2.7c-0.4,0.4-0.4,1.2,0,1.6    C258.5,21.4,259.2,21.4,259.7,21"/>
	</g>
	<g>
		<path class="st2" d="M96.5,16.4c-10.8,0-19.5,8.8-19.5,19.5c0,1.3,0.1,2.6,0.4,3.9l6,4.4l0.9,7.4h9.9l0.6,0.4    c0.5,0.4,1.1,0.6,1.7,0.6c0.6,0,1.2-0.2,1.7-0.6l0.6-0.4h9.9l0.9-7.4l6-4.4c0.3-1.3,0.4-2.6,0.4-3.9    C116,25.1,107.3,16.4,96.5,16.4z M112.4,38l-5.9,4.3l-0.7,5.8h-7.2l-1.1,0.8c-0.3,0.2-0.6,0.3-0.9,0.3c-0.3,0-0.7-0.1-0.9-0.3    l-1.1-0.8h-7.2l-0.7-5.8L80.6,38c-0.2-0.7-0.3-1.4-0.3-2.1c0-1.2,0.2-2.3,0.7-3.4l10.5,10.6L81.4,30.6c0.4-1.6,1.3-3.1,2.6-4.2    l9.2,15.8L85,24.8c1.1-1.4,2.5-2.4,4.2-2.9l5.6,19.6l-4.1-20.4c1.2-0.7,2.7-1.1,4.1-1.1c0.3,0,0.6,0,0.9,0l0.8,21.3l0.8-21.3    c0.3,0,0.6,0,0.9,0c1.4,0,2.8,0.4,4.1,1.1l-4.1,20.4l5.6-19.6c1.7,0.5,3.1,1.5,4.2,2.9l-8.1,17.3l9.2-15.8    c1.3,1.1,2.2,2.6,2.6,4.2l-10.2,12.6l10.5-10.6c0.5,1.1,0.7,2.2,0.7,3.4C112.6,36.6,112.5,37.3,112.4,38z"/>
		<path class="st3" d="M111.9,32.6l-10.5,10.6l10.2-12.6c-0.4-1.6-1.3-3.1-2.6-4.2l-9.2,15.8l8.1-17.3c-1.1-1.4-2.5-2.4-4.2-2.9    l-5.6,19.6l4.1-20.4c-1.2-0.7-2.7-1.1-4.1-1.1c-0.3,0-0.6,0-0.9,0l-0.8,21.3l-0.8-21.3c-0.3,0-0.6,0-0.9,0c-1.4,0-2.8,0.4-4.1,1.1    l4.1,20.4l-5.6-19.6c-1.7,0.5-3.1,1.5-4.2,2.9l8.1,17.3l-9.2-15.8c-1.3,1.1-2.2,2.6-2.6,4.2l10.2,12.6L81.1,32.6    c-0.5,1.1-0.7,2.2-0.7,3.4c0,0.7,0.1,1.4,0.3,2.1l5.9,4.3l0.7,5.8h7.2l1.1,0.8c0.3,0.2,0.6,0.3,0.9,0.3c0.3,0,0.7-0.1,0.9-0.3    l1.1-0.8h7.2l0.7-5.8l5.9-4.3c0.2-0.7,0.3-1.4,0.3-2.1C112.6,34.8,112.4,33.6,111.9,32.6z"/>
	</g>
</g>
</svg>